<?xml version="1.0" encoding="utf-8"?>
<!-- Generator: Adobe Illustrator 19.0.1, SVG Export Plug-In . SVG Version: 6.00 Build 0)  -->
<!DOCTYPE svg PUBLIC "-//W3C//DTD SVG 1.1//EN" "http://www.w3.org/Graphics/SVG/1.1/DTD/svg11.dtd">
<svg version="1.1" id="Layer_1" xmlns="http://www.w3.org/2000/svg" xmlns:xlink="http://www.w3.org/1999/xlink" x="0px" y="0px"
	 viewBox="0 0 10 10" style="enable-background:new 0 0 10 10;" xml:space="preserve">
<style type="text/css">
	.st0{fill:#FFFFFF;}
</style>
<g>
	<path class="st0" d="M10,7.2C10,7.6,9.9,8,9.8,8.3C9.6,8.6,9.4,8.9,9.2,9.2C8.9,9.4,8.6,9.6,8.3,9.8C8,9.9,7.6,10,7.2,10
		c-0.5,0-0.9-0.1-1.4-0.4C5.6,9.7,5.3,9.7,5,9.7c-0.7,0-1.3-0.1-1.8-0.4c-0.6-0.2-1.1-0.6-1.5-1c-0.4-0.4-0.8-0.9-1-1.5
		C0.4,6.3,0.3,5.7,0.3,5c0-0.3,0-0.6,0.1-0.9C0.1,3.7,0,3.3,0,2.8C0,2.4,0.1,2,0.2,1.7c0.1-0.3,0.3-0.6,0.6-0.9
		c0.3-0.3,0.5-0.5,0.9-0.6C2,0.1,2.4,0,2.8,0c0.5,0,0.9,0.1,1.4,0.4C4.4,0.3,4.7,0.3,5,0.3c0.4,0,0.9,0.1,1.3,0.2
		C6.7,0.6,7,0.7,7.4,0.9c0.3,0.2,0.7,0.5,1,0.7s0.5,0.6,0.7,1C9.3,3,9.4,3.3,9.6,3.7C9.7,4.1,9.7,4.6,9.7,5c0,0.3,0,0.6-0.1,0.9
		C9.9,6.3,10,6.7,10,7.2z M7.4,6.2c0-0.4-0.1-0.7-0.3-0.9C7,5.1,6.8,4.9,6.5,4.8C6.2,4.6,5.9,4.5,5.6,4.5C5.3,4.4,5.1,4.4,4.8,4.3
		C4.5,4.2,4.3,4.2,4.1,4.1C4,4,3.9,3.9,3.9,3.7c0-0.1,0-0.2,0.1-0.3C4,3.3,4.1,3.2,4.2,3.2C4.3,3.1,4.4,3.1,4.5,3c0.1,0,0.2,0,0.3,0
		C5,3,5.2,3,5.3,3.1c0.1,0,0.3,0.1,0.3,0.2c0.1,0.1,0.2,0.1,0.2,0.2C6,3.5,6.1,3.6,6.1,3.6c0.1,0.1,0.1,0.1,0.2,0.2
		c0.1,0,0.2,0.1,0.3,0.1c0.2,0,0.3,0,0.4-0.1c0.1-0.1,0.2-0.2,0.2-0.4c0-0.2-0.1-0.4-0.3-0.6C6.8,2.6,6.6,2.4,6.3,2.3
		C6.1,2.2,5.8,2.1,5.6,2.1C5.3,2,5.1,2,4.9,2C4.6,2,4.4,2,4.1,2.1C3.8,2.2,3.6,2.3,3.4,2.4C3.1,2.5,3,2.7,2.8,2.9
		C2.7,3.2,2.6,3.4,2.6,3.8c0,0.4,0.1,0.7,0.3,0.9C3,4.9,3.3,5,3.5,5.1C3.8,5.3,4,5.3,4.3,5.4c0.3,0.1,0.6,0.1,0.8,0.2
		c0.3,0.1,0.5,0.1,0.6,0.2C6,5.9,6.1,6.1,6.1,6.3c0,0.1,0,0.3-0.1,0.3C5.9,6.7,5.8,6.8,5.7,6.9C5.6,6.9,5.5,7,5.4,7C5.2,7,5.1,7,5,7
		C4.8,7,4.6,7,4.5,7c-0.1,0-0.3-0.1-0.4-0.2C4,6.7,3.9,6.6,3.9,6.5C3.8,6.4,3.7,6.4,3.7,6.3C3.6,6.2,3.5,6.1,3.4,6.1
		C3.4,6,3.3,6,3.2,6C3,6,2.9,6.1,2.8,6.2S2.6,6.4,2.6,6.5c0,0.1,0,0.2,0.1,0.3c0,0.1,0.1,0.2,0.1,0.3c0.1,0.2,0.3,0.3,0.4,0.4
		c0.2,0.1,0.4,0.2,0.6,0.3C4,7.9,4.2,7.9,4.4,8C4.6,8,4.8,8,5,8c0.3,0,0.6,0,0.9-0.1c0.3-0.1,0.5-0.2,0.8-0.3C6.9,7.5,7.1,7.3,7.2,7
		C7.3,6.8,7.4,6.5,7.4,6.2z"/>
</g>
</svg>
